# AST/ASF file generated using VICON BodyLanguage
# -----------------------------------------------
:version 1.10
:name VICON
:units
  mass 1.0
  length 0.45
  angle deg
:documentation
   .ast/.asf automatically generated from VICON data using
   VICON BodyBuilder and BodyLanguage model FoxedUp or BRILLIANT.MOD
:root
   order TX TY TZ RX RY RZ
   axis XYZ
   position 0 0 0  
   orientation 0 0 0 
:bonedata
  begin
     id 1 
     name lhipjoint
     direction 0.576517 -0.752066 0.319413 
     length 2.45433 
     axis 0 0 0  XYZ
  end
  begin
     id 2 
     name lfemur
     direction 0.34202 -0.939693 0  
     length 7.54459  
     axis 0 0 20  XYZ
    dof rx ry rz
    limits (-160.0 20.0)
           (-70.0 70.0)
           (-60.0 70.0)
  end
  begin
     id 3 
     name ltibia
     direction 0.34202 -0.939693 0   
     length 7.73986   
     axis 0 0 20   XYZ
    dof rx
    limits (-10.0 170.0)
  end
  begin
     id 4 
     name lfoot
     direction 0.090693 -0.249177 0.964202   
     length 2.28437   
     axis -90 7.62852e-016 20   XYZ
    dof rx rz
    limits (-45.0 90.0)
           (-70.0 20.0)
  end
  begin
     id 5 
     name ltoes
     direction 1.5356e-011 -4.21928e-011 1   
     length 1.14243   
     axis -90 7.62852e-016 20   XYZ
    dof rx
    limits (-90.0 20.0)
  end
  begin
     id 6 
     name rhipjoint
     direction -0.573937 -0.753736 0.320122   
     length 2.44889  
     axis 0 0 0  XYZ 
  end
  begin
     id 7 
     name rfemur
     direction -0.34202 -0.939693 0   
     length 7.50166   
     axis 0 0 -20   XYZ
    dof rx ry rz
    limits (-160.0 20.0)
           (-70.0 70.0)
           (-70.0 60.0)
  end
  begin
     id 8 
     name rtibia
     direction -0.34202 -0.939693 0   
     length 7.54266   
     axis 0 0 -20   XYZ
    dof rx
    limits (-10.0 170.0)
 end
 begin
     id 9 
     name rfoot
     direction -0.114017 -0.31326 0.942798   
     length 2.34212  
     axis -90 -7.62852e-016 -20   XYZ
    dof rx rz
    limits (-45.0 90.0)
           (-20.0 70.0)
  end
  begin
     id 10 
     name rtoes
     direction -1.53557e-011 -4.21867e-011 1   
     length 1.16246   
     axis -90 -7.62852e-016 -20   XYZ
    dof rx
    limits (-90.0 20.0)
  end
  begin
     id 11 
     name lowerback
     direction -0.0228371 0.999155 -0.034167   
     length 2.0537   
     axis 0 0 0   XYZ
    dof rx ry rz
    limits (-20.0 45.0)
           (-30.0 30.0)
           (-30.0 30.0)
  end
  begin
     id 12 
     name upperback
     direction 0.0198981 0.999794 0.00389455   
     length 2.05302   
     axis 0 0 0   XYZ
    dof rx ry rz
    limits (-20.0 45.0)
           (-30.0 30.0)
           (-30.0 30.0)
  end
  begin
     id 13 
     name thorax
     direction 0.0304566 0.99935 0.0192987   
     length 2.05315   
     axis 0 0 0   XYZ
    dof rx ry rz
    limits (-20.0 45.0)
           (-30.0 30.0)
           (-30.0 30.0)
  end
  begin
     id 14 
     name lowerneck
     direction -0.0196762 0.99417 0.106017   
     length 1.82056   
     axis 0 0 0   XYZ
    dof rx ry rz
    limits (-20.0 45.0)
           (-30.0 30.0)
           (-30.0 30.0)
  end
  begin
     id 15 
     name upperneck
     direction 0.00517787 0.9802 -0.197944   
     length 1.83835   
     axis 0 0 0   XYZ
    dof rx ry rz
    limits (-20.0 45.0)
           (-30.0 30.0)
           (-30.0 30.0)
  end
  begin
     id 16
     name head
     direction 0.00211419 0.996945 -0.078081  
     length 1.85629  
     axis 0 0 0   XYZ
    dof rx ry rz
    limits (-20.0 45.0)
           (-30.0 30.0)
           (-30.0 30.0)
  end
  begin
     id 17 
     name lclavicle
     direction 0.930001 0.365811 -0.0357824  
     length 3.81961  
     axis 0 0 0   XYZ
    dof ry rz
    limits (-20.0 10.0)
           (0.0 20.0)
  end
  begin
     id 18 
     name lhumerus
     direction 1 -4.48968e-011 -3.06644e-027   
     length 5.14507   
     axis 180 -30 -90   XYZ
    dof rx ry rz
    limits (-60.0 90.0)
           (-90.0 90.0)
           (-90.0 90.0)
  end
  begin
     id 19
     name lradius
     direction 1 -4.48965e-011 9.06925e-028   
     length 3.50646   
     axis 180 -30 -90   XYZ
    dof rx
    limits (-10.0 170.0)
  end
  begin
     id 20
     name lwrist
     direction 1 -4.48957e-011 1.03922e-027   
     length 1.75323   
     axis -2.56395e-016 90 90   XYZ
    dof ry
    limits (-180.0 0.0)
 end
  begin
     id 21 
     name lhand
     direction 1 -4.48967e-011 2.08017e-027   
     length 0.629969   
     axis -1.32723e-015 90 90   XYZ
    dof rx rz
    limits (-90.0 90.0)
           (-45.0 45.0)
  end
  begin
     id 22 
     name lfingers
     direction 1 -4.49089e-011 4.20095e-027   
     length 0.507897   
     axis -2.6545e-015 90 90   XYZ
    dof rx
    limits (0.0 90.0)
  end
  begin
     id 23
     name lthumb
     direction 0.707107 -6.35001e-011 0.707107   
     length 0.729241   
     axis -90 45 5.05613e-014   XYZ
    dof rx rz
    limits (-45.0 45.0)
           (-45.0 45.0)
  end
  begin
     id 24 
     name rclavicle
     direction -0.881882 0.464123 -0.0829113   
     length 3.47515  
     axis 0 0 0   XYZ 
    dof ry rz
    limits (-10.0 20.0)
           (-20.0 0.0)
  end
  begin
     id 25 
     name rhumerus
     direction -1 -4.48961e-011 -1.55672e-027  
     length 5.232   
     axis 180 30 90   XYZ
    dof rx ry rz
    limits (-90.0 60.0)
           (-90.0 90.0)
           (-90.0 90.0)
  end
  begin
     id 26 
     name rradius
     direction -1 -4.48963e-011 6.18178e-029   
     length 3.65641   
     axis 180 30 90   XYZ
    dof rx
    limits (-10.0 170.0)
  end
  begin
     id 27 
     name rwrist
     direction -1 -4.48982e-011 1.04136e-027   
     length 1.8282   
     axis -2.56395e-016 -90 -90   XYZ
    dof ry
    limits (-180.0 0.0)
  end
  begin
     id 28
     name rhand
     direction -1 -4.48929e-011 2.07378e-027   
     length 0.656807   
     axis -1.32723e-015 -90 -90   XYZ
    dof rx rz
    limits (-90.0 90.0)
           (-45.0 45.0)
  end
  begin
     id 29
     name rfingers
     direction -1 -4.489e-011 4.13816e-027   
     length 0.529535   
     axis -2.6545e-015 -90 -90   XYZ
    dof rx
    limits (0.0 90.0)
  end
  begin
     id 30
     name rthumb
     direction -0.707107 -6.34843e-011 0.707107   
     length 0.760309   
     axis -90 -45 -5.05613e-014   XYZ
    dof rx rz
    limits (-45.0 45.0)
           (-45.0 45.0)
  end
:hierarchy
  begin
    root lhipjoint rhipjoint lowerback
    lhipjoint lfemur
    lfemur ltibia
    ltibia lfoot
    lfoot ltoes
    rhipjoint rfemur
    rfemur rtibia
    rtibia rfoot
    rfoot rtoes
    lowerback upperback
    upperback thorax
    thorax lowerneck lclavicle rclavicle
    lowerneck upperneck
    upperneck head
    lclavicle lhumerus
    lhumerus lradius
    lradius lwrist
    lwrist lhand lthumb
    lhand lfingers
    rclavicle rhumerus
    rhumerus rradius
    rradius rwrist
    rwrist rhand rthumb
    rhand rfingers
  end

#!OML:ASF H:\ManfredETheater\Project 1\Capture day 1\Session 1\subject.ASF
:FULLY-SPECIFIED
:DEGREES
1
root 1.06758 15.2513 47.5817 -156.428 -4.89334 173.541
lowerback 15.5918 -0.508435 -5.37155
upperback 0.602184 -1.822 -0.324356
thorax -7.96765 -0.755641 3.10806
lowerneck -13.7291 -3.82269 -5.02167
upperneck -0.427666 -4.83412 5.57669
head 2.57416 -2.36657 2.41018
rclavicle 2.18663e-015 6.55989e-015
rhumerus -45.5442 2.89296 -82.934
rradius 51.2135
rwrist -7.61671
rhand -24.2298 -10.3457
rfingers 7.12502
rthumb 2.25542 -40.3135
lclavicle 2.18663e-015 6.55989e-015
lhumerus -25.3778 -13.7677 87.3718
lradius 108.228
lwrist 0.429284
lhand -23.6992 1.68629
lfingers 7.12502
lthumb 2.76786 31.6481
rfemur -49.3735 -13.8858 18.6168
rtibia 97.995
rfoot -5.04819 -0.928358
rtoes -22.3734
lfemur -36.1714 -5.65459 -26.3253
ltibia 66.3973
lfoot -34.2084 -6.0229
ltoes -6.27396
2
root 1.07452 15.2018 47.2879 -155.931 -5.04962 173.354
lowerback 15.4732 -0.762944 -5.50623
upperback 0.540162 -2.16798 -0.271968
thorax -7.93007 -0.914559 3.31174
lowerneck -13.7155 -3.66207 -4.93951
upperneck -0.882634 -4.65219 5.53324
head 2.40053 -2.29444 2.39238
rclavicle 9.54166e-015 2.0276e-014
rhumerus -46.6163 2.50482 -82.3999
rradius 50.9582
rwrist -9.04345
rhand -24.7893 -10.8377
rfingers 7.12502
rthumb 1.71505 -40.8106
lclavicle 9.54166e-015 2.0276e-014
lhumerus -23.2042 -13.5646 86.886
lradius 109.481
lwrist 0.872205
lhand -24.197 1.9105
lfingers 7.12502
lthumb 2.28711 31.878
rfemur -53.6151 -14.4 18.8111
rtibia 99.7381
rfoot -4.83322 -1.25421
rtoes -21.454
lfemur -35.0815 -6.26637 -26.2411
ltibia 65.574
lfoot -34.7677 -6.46037
ltoes -5.0402
3
root 1.08473 15.1651 46.9752 -155.826 -5.224 173.147
lowerback 15.5801 -0.939054 -5.7312
upperback 0.694617 -2.44831 -0.189309
thorax -7.78347 -1.05351 3.58846
lowerneck -13.9985 -3.54944 -4.86222
upperneck -1.20097 -4.53042 5.48332
head 2.33178 -2.24988 2.36643
rclavicle -2.14687e-014 5.56597e-015
rhumerus -47.7285 2.15394 -81.7915
rradius 51.0918
rwrist -10.5942
rhand -25.4589 -11.4726
rfingers 7.12502
rthumb 1.06831 -41.4496
lclavicle -2.14687e-014 5.56597e-015
lhumerus -20.7793 -13.4004 86.5224
lradius 110.675
lwrist 1.33464
lhand -24.7134 1.82333
lfingers 7.12502
lthumb 1.78841 31.7956
rfemur -57.2582 -14.756 18.8939
rtibia 100.758
rfoot -6.16159 -1.53724
rtoes -18.8568
lfemur -33.2687 -6.76038 -26.2233
ltibia 64.2816
lfoot -35.1951 -6.83671
ltoes -4.07436
4
root 1.0936 15.1338 46.6523 -155.651 -5.49828 172.943
lowerback 15.7515 -1.16553 -5.93069
upperback 0.644375 -2.7821 -0.0375038
thorax -7.88327 -1.19848 3.94362
lowerneck -14.0305 -3.44152 -4.83168
upperneck -1.39271 -4.3992 5.37773
head 2.25978 -2.19617 2.33353
rclavicle 4.92986e-014 -5.76476e-015
rhumerus -49.3944 2.09436 -81.1652
rradius 51.5686
rwrist -11.7408
rhand -26.092 -11.0752
rfingers 7.12502
rthumb 0.456898 -41.0545
lclavicle 4.92986e-014 -5.76476e-015
lhumerus -18.8181 -13.1831 86.3757
lradius 111.994
lwrist 1.82611
lhand -25.0866 1.65479
lfingers 7.12502
lthumb 1.4279 31.6298
rfemur -60.7477 -15.1387 19.0231
rtibia 101.377
rfoot -7.16325 -1.55008
rtoes -19.5724
lfemur -31.4504 -7.11481 -26.195
ltibia 62.8873
lfoot -35.6098 -7.25676
ltoes -3.37982
